<svg width="1440" height="2965" viewBox="0 0 1440 2965" fill="none" xmlns="http://www.w3.org/2000/svg">
<mask id="mask0_1_4" style="mask-type:alpha" maskUnits="userSpaceOnUse" x="-1" y="0" width="1466" height="2965">
<rect x="-1" width="1466" height="2965" fill="#F5F7FE"/>
</mask>
<g mask="url(#mask0_1_4)">
<g filter="url(#filter0_f_1_4)">
<path d="M172.474 -1872.1C290.437 -2326.6 398.499 -707.156 491.29 -404.772C558.815 -212.44 638.744 -1128.66 660.793 -404.771C682.842 319.118 689.732 2380.83 660.793 3627.02C631.853 4873.2 496.321 2875.64 354.379 3627.02C212.438 4378.39 280.444 4799.9 98.5382 5028.98C-83.3676 5258.06 -389.3 4314.25 -434.777 3627.02C-480.253 2939.78 -525.73 2005.14 -536.754 951.376C-547.779 -102.386 -184.448 2159.68 -133.459 1783.99C-82.4702 1408.3 25.0197 -1303.99 172.474 -1872.1Z" fill="#FEF5E5"/>
<path d="M172.474 -1872.1C290.437 -2326.6 398.499 -707.156 491.29 -404.772C558.815 -212.44 638.744 -1128.66 660.793 -404.771C682.842 319.118 689.732 2380.83 660.793 3627.02C631.853 4873.2 496.321 2875.64 354.379 3627.02C212.438 4378.39 280.444 4799.9 98.5382 5028.98C-83.3676 5258.06 -389.3 4314.25 -434.777 3627.02C-480.253 2939.78 -525.73 2005.14 -536.754 951.376C-547.779 -102.386 -184.448 2159.68 -133.459 1783.99C-82.4702 1408.3 25.0197 -1303.99 172.474 -1872.1Z" stroke="black"/>
</g>
<g filter="url(#filter1_f_1_4)">
<path d="M1050.76 -101.324C1180.74 -571.623 1299.82 1104.14 1402.06 1417.04C1476.47 1616.06 1564.54 667.975 1588.84 1417.04C1613.13 2166.1 1620.72 4299.51 1588.84 5589.04C1556.95 6878.57 1407.61 4811.53 1251.2 5589.04C1094.8 6366.55 1169.73 6802.71 969.293 7039.76C768.853 7276.8 431.749 6300.18 381.639 5589.04C331.529 4877.9 281.419 3910.76 269.271 2820.35C257.123 1729.94 657.474 4070.68 713.658 3681.92C769.842 3293.17 888.284 486.549 1050.76 -101.324Z" fill="#E5E6FE"/>
<path d="M1050.76 -101.324C1180.74 -571.623 1299.82 1104.14 1402.06 1417.04C1476.47 1616.06 1564.54 667.975 1588.84 1417.04C1613.13 2166.1 1620.72 4299.51 1588.84 5589.04C1556.95 6878.57 1407.61 4811.53 1251.2 5589.04C1094.8 6366.55 1169.73 6802.71 969.293 7039.76C768.853 7276.8 431.749 6300.18 381.639 5589.04C331.529 4877.9 281.419 3910.76 269.271 2820.35C257.123 1729.94 657.474 4070.68 713.658 3681.92C769.842 3293.17 888.284 486.549 1050.76 -101.324Z" stroke="black"/>
</g>
</g>
<defs>
<filter id="filter0_f_1_4" x="-737.5" y="-2152.5" width="1618" height="7417" filterUnits="userSpaceOnUse" color-interpolation-filters="sRGB">
<feFlood flood-opacity="0" result="BackgroundImageFix"/>
<feBlend mode="normal" in="SourceGraphic" in2="BackgroundImageFix" result="shape"/>
<feGaussianBlur stdDeviation="100" result="effect1_foregroundBlur_1_4"/>
</filter>
<filter id="filter1_f_1_4" x="68.5" y="-384.5" width="1742" height="7661" filterUnits="userSpaceOnUse" color-interpolation-filters="sRGB">
<feFlood flood-opacity="0" result="BackgroundImageFix"/>
<feBlend mode="normal" in="SourceGraphic" in2="BackgroundImageFix" result="shape"/>
<feGaussianBlur stdDeviation="100" result="effect1_foregroundBlur_1_4"/>
</filter>
</defs>
</svg>
